<?xml version="1.0" encoding="UTF-8" standalone="no"?>
<!-- Created with Inkscape (http://www.inkscape.org/) -->

<svg
   xmlns:dc="http://purl.org/dc/elements/1.1/"
   xmlns:cc="http://creativecommons.org/ns#"
   xmlns:rdf="http://www.w3.org/1999/02/22-rdf-syntax-ns#"
   xmlns:svg="http://www.w3.org/2000/svg"
   xmlns="http://www.w3.org/2000/svg"
   xmlns:sodipodi="http://sodipodi.sourceforge.net/DTD/sodipodi-0.dtd"
   xmlns:inkscape="http://www.inkscape.org/namespaces/inkscape"
   id="svg2"
   version="1.1"
   inkscape:version="0.91 r13725"
   xml:space="preserve"
   width="180"
   height="180"
   viewBox="0 0 180.00001 179.99999"
   sodipodi:docname="subshare.svg"
   inkscape:export-filename="/home/mn/workspace/subshare.2/org.subshare/org.subshare.gui/src/assembly/subshare_32x32.png"
   inkscape:export-xdpi="16.940001"
   inkscape:export-ydpi="16.940001"><metadata
     id="metadata8"><rdf:RDF><cc:Work
         rdf:about=""><dc:format>image/svg+xml</dc:format><dc:type
           rdf:resource="http://purl.org/dc/dcmitype/StillImage" /><dc:title></dc:title></cc:Work></rdf:RDF></metadata><defs
     id="defs6"><clipPath
       clipPathUnits="userSpaceOnUse"
       id="clipPath22"><path
         d="m 3072.27,994.781 c 10.63,-10.633 10.63,-28 0,-38.621 l -28.96,-28.961 c -10.62,-10.629 -8.58,-18.238 -2.68,-24.148 5.9,-5.903 13.52,-7.942 24.14,2.679 l 88.51,88.508 c 0,0 34.85,34.872 10.72,59.012 -5.9,5.88 -16.62,16.61 -16.62,16.61 l -4.3,4.31 c -10.62,10.62 -10.62,28 0,38.6 l 28.96,28.97 c 10.62,10.63 8.58,18.24 2.69,24.15 -5.92,5.89 -13.52,7.93 -24.14,-2.7 l -96.55,-96.54 c 0,0 -26.82,-26.81 -2.69,-50.96 5.91,-5.89 16.63,-16.62 16.63,-16.62 l 4.29,-4.289 z"
         id="path24"
         inkscape:connector-curvature="0" /></clipPath><linearGradient
       x1="0"
       y1="0"
       x2="1"
       y2="0"
       gradientUnits="userSpaceOnUse"
       gradientTransform="matrix(198.47,198.47,198.47,-198.47,3008.45,935.23)"
       spreadMethod="pad"
       id="linearGradient26"><stop
         style="stop-opacity:1;stop-color:#9d1661"
         offset="0"
         id="stop28" /><stop
         style="stop-opacity:1;stop-color:#ed127c"
         offset="0.63051702"
         id="stop30" /><stop
         style="stop-opacity:1;stop-color:#ed127c"
         offset="1"
         id="stop32" /></linearGradient><clipPath
       clipPathUnits="userSpaceOnUse"
       id="clipPath60"><path
         d="m 2663.12,4422.04 c 30.48,-30.47 30.48,-80.35 0,-110.82 l -83.11,-83.1 c -30.47,-30.5 -24.63,-52.35 -7.71,-69.27 16.93,-16.92 38.8,-22.78 69.27,7.69 l 253.96,253.97 c 0,0 100.05,100.05 30.78,169.32 -16.91,16.92 -47.7,47.71 -47.7,47.71 l -12.32,12.31 c -30.47,30.48 -30.47,80.36 0,110.82 l 83.11,83.1 c 30.49,30.5 24.64,52.34 7.72,69.29 -16.95,16.91 -38.79,22.77 -69.27,-7.71 L 2610.8,4628.29 c 0,0 -76.97,-76.95 -7.71,-146.21 16.94,-16.93 47.72,-47.71 47.72,-47.71 l 12.31,-12.33 z"
         id="path62"
         inkscape:connector-curvature="0" /></clipPath><linearGradient
       x1="0"
       y1="0"
       x2="1"
       y2="0"
       gradientUnits="userSpaceOnUse"
       gradientTransform="matrix(569.511,569.511,569.511,-569.511,2479.96,4251.19)"
       spreadMethod="pad"
       id="linearGradient64"><stop
         style="stop-opacity:1;stop-color:#9d1661"
         offset="0"
         id="stop66" /><stop
         style="stop-opacity:1;stop-color:#ed127c"
         offset="0.63051702"
         id="stop68" /><stop
         style="stop-opacity:1;stop-color:#ed127c"
         offset="1"
         id="stop70" /></linearGradient><clipPath
       clipPathUnits="userSpaceOnUse"
       id="clipPath110"><path
         d="m 6384.29,4141.58 c 0,-157.53 -127.7,-285.23 -285.23,-285.23 l -784.44,0 c -157.54,0 -285.26,127.7 -285.26,285.23 l 0,784.45 c 0,157.54 127.72,285.24 285.26,285.24 l 784.44,0 c 157.53,0 285.23,-127.7 285.23,-285.24 l 0,-784.45 z"
         id="path112"
         inkscape:connector-curvature="0" /></clipPath><linearGradient
       x1="0"
       y1="0"
       x2="1"
       y2="0"
       gradientUnits="userSpaceOnUse"
       gradientTransform="matrix(1187.84,1187.84,1187.84,-1187.84,5112.92,3939.88)"
       spreadMethod="pad"
       id="linearGradient114"><stop
         style="stop-opacity:1;stop-color:#e95e53"
         offset="0"
         id="stop116" /><stop
         style="stop-opacity:1;stop-color:#ed127c"
         offset="1"
         id="stop118" /></linearGradient><clipPath
       clipPathUnits="userSpaceOnUse"
       id="clipPath148"><path
         d="m 3315.38,2187.6 c 0,-49.75 -40.33,-90.08 -90.08,-90.08 l -247.72,0 c -49.75,0 -90.08,40.33 -90.08,90.08 l 0,247.71 c 0,49.76 40.33,90.09 90.08,90.09 l 247.72,0 c 49.75,0 90.08,-40.33 90.08,-90.09 l 0,-247.71 z"
         id="path150"
         inkscape:connector-curvature="0" /></clipPath><linearGradient
       x1="0"
       y1="0"
       x2="1"
       y2="0"
       gradientUnits="userSpaceOnUse"
       gradientTransform="matrix(375.112,375.112,375.112,-375.112,2913.88,2123.91)"
       spreadMethod="pad"
       id="linearGradient152"><stop
         style="stop-opacity:1;stop-color:#e95e53"
         offset="0"
         id="stop154" /><stop
         style="stop-opacity:1;stop-color:#ed127c"
         offset="1"
         id="stop156" /></linearGradient></defs><sodipodi:namedview
     pagecolor="#ffffff"
     bordercolor="#666666"
     borderopacity="1"
     objecttolerance="10"
     gridtolerance="10"
     guidetolerance="10"
     inkscape:pageopacity="0"
     inkscape:pageshadow="2"
     inkscape:window-width="1034"
     inkscape:window-height="1120"
     id="namedview4"
     showgrid="false"
     inkscape:zoom="1.2566769"
     inkscape:cx="88.777608"
     inkscape:cy="-124.57649"
     inkscape:window-x="1358"
     inkscape:window-y="413"
     inkscape:window-maximized="0"
     inkscape:current-layer="g10"
     fit-margin-top="0"
     fit-margin-left="0"
     fit-margin-right="0"
     fit-margin-bottom="0" /><g
     id="g10"
     inkscape:groupmode="layer"
     inkscape:label="ink_ext_XXXXXX"
     transform="matrix(1.25,0,0,-1.25,-271.2698,663.00178)"><g
       id="g3360"
       transform="translate(12.331455,5.0206364)"><path
         d="m 221.059,472.066 c -18.47,-18.471 0,-36.941 0,-36.941 l 12.93,-12.93 c 3.047,-3.046 8.034,-3.046 11.081,0 l 7.39,7.389 c 3.047,3.047 3.047,8.034 0,11.081 l -7.388,7.389 c -3.049,3.048 -3.049,8.034 0,11.082 l 44.328,44.328 c 3.049,3.048 3.049,8.034 0,11.083 l -1.385,1.386 c -11.545,11.542 -23.858,-0.77 -23.858,-0.77 l -43.098,-43.097"
         style="fill:#455f7e;fill-opacity:1;fill-rule:nonzero;stroke:none"
         id="path52"
         inkscape:connector-curvature="0" /><path
         d="m 332.652,435.894 c 17.7,17.701 0,35.401 0,35.401 l -13.698,13.699 c -3.049,3.048 -8.035,3.048 -11.084,0 l -7.388,-7.387 c -3.048,-3.048 -3.048,-8.037 0,-11.083 l 7.388,-7.388 c 3.048,-3.047 3.048,-8.034 0,-11.082 l -44.328,-44.327 c -3.048,-3.05 -3.048,-8.037 0,-11.084 l 2.154,-2.155 c 10.774,-10.774 22.319,0.769 22.319,0.769 l 44.637,44.637"
         style="fill:#a6e0c2;fill-opacity:1;fill-rule:nonzero;stroke:none"
         id="path54"
         inkscape:connector-curvature="0" /><g
         transform="scale(0.1,0.1)"
         id="g56"><g
           id="g58"
           clip-path="url(#clipPath60)"><path
             d="m 2663.12,4422.04 c 30.48,-30.47 30.48,-80.35 0,-110.82 l -83.11,-83.1 c -30.47,-30.5 -24.63,-52.35 -7.71,-69.27 16.93,-16.92 38.8,-22.78 69.27,7.69 l 253.96,253.97 c 0,0 100.05,100.05 30.78,169.32 -16.91,16.92 -47.7,47.71 -47.7,47.71 l -12.32,12.31 c -30.47,30.48 -30.47,80.36 0,110.82 l 83.11,83.1 c 30.49,30.5 24.64,52.34 7.72,69.29 -16.95,16.91 -38.79,22.77 -69.27,-7.71 L 2610.8,4628.29 c 0,0 -76.97,-76.95 -7.71,-146.21 16.94,-16.93 47.72,-47.71 47.72,-47.71 l 12.31,-12.33"
             style="fill:url(#linearGradient64);fill-opacity:1;fill-rule:nonzero;stroke:none"
             id="path72"
             inkscape:connector-curvature="0" /></g></g></g></g></svg>